<?xml version="1.0" standalone="no"?>
<!DOCTYPE svg PUBLIC "-//W3C//DTD SVG 20010904//EN"
 "http://www.w3.org/TR/2001/REC-SVG-20010904/DTD/svg10.dtd">
<svg version="1.0" xmlns="http://www.w3.org/2000/svg"
 width="700.000000pt" height="700.000000pt" viewBox="0 0 700.000000 700.000000"
 preserveAspectRatio="xMidYMid meet">
<metadata>
Created by potrace 1.14, written by Peter Selinger 2001-2017
</metadata>
<g transform="translate(0.000000,700.000000) scale(0.100000,-0.100000)"
fill="#000000" stroke="none">
<path d="M1749 6996 c-2 -2 -30 -6 -62 -10 -31 -3 -67 -8 -80 -11 -12 -2 -35
-7 -52 -9 -149 -23 -383 -104 -532 -182 -276 -147 -524 -369 -695 -622 -53
-79 -118 -191 -145 -252 -8 -19 -23 -53 -33 -75 -33 -74 -67 -179 -94 -286
-56 -223 -55 -175 -52 -2094 1 -973 5 -1783 9 -1800 7 -38 18 -93 23 -125 3
-14 7 -33 10 -42 3 -9 7 -26 9 -39 2 -12 12 -47 21 -78 9 -31 17 -60 19 -66 1
-5 6 -19 10 -30 5 -11 16 -40 26 -65 9 -25 25 -63 35 -85 10 -22 17 -43 16
-47 -1 -5 3 -8 8 -8 6 0 10 -9 10 -19 0 -11 3 -21 8 -23 4 -1 20 -28 36 -58
31 -59 116 -189 138 -211 8 -8 25 -30 38 -49 14 -19 44 -55 67 -79 24 -24 43
-47 43 -52 0 -4 6 -12 14 -16 8 -4 44 -36 80 -70 36 -35 70 -63 74 -63 5 0 17
-9 27 -20 34 -37 198 -145 295 -193 25 -12 48 -26 51 -30 3 -5 8 -8 10 -7 5 2
36 -10 104 -40 51 -22 124 -48 154 -55 9 -3 43 -12 76 -21 71 -19 93 -24 120
-29 11 -2 34 -6 50 -9 17 -3 53 -9 80 -13 69 -11 3606 -10 3675 0 48 8 187 36
258 52 41 10 176 57 203 71 15 7 29 10 33 7 3 -4 6 0 6 7 0 7 3 10 6 7 15 -14
344 174 397 227 9 9 18 16 22 16 4 0 12 6 20 13 7 6 41 37 75 67 72 62 141
130 135 130 -3 0 10 15 28 34 17 19 46 51 62 71 17 21 35 43 41 49 6 6 13 16
15 21 2 6 26 43 52 83 43 64 159 277 156 284 -1 2 6 20 15 42 9 21 16 40 16
42 0 1 5 15 12 31 12 29 13 35 22 68 3 11 12 45 21 75 8 30 17 68 20 84 3 16
7 32 9 35 2 3 7 29 10 56 4 28 11 77 16 110 10 68 8 3598 -2 3632 -4 11 -10
43 -14 70 -10 72 -11 77 -39 183 -82 320 -244 604 -483 848 -312 319 -718 515
-1162 561 -78 8 -3532 15 -3541 7z"/>
</g>
</svg>
